<?xml version="1.0" encoding="utf-8" standalone="no"?>
<!DOCTYPE svg PUBLIC "-//W3C//DTD SVG 1.1//EN"
  "http://www.w3.org/Graphics/SVG/1.1/DTD/svg11.dtd">
<svg xmlns:xlink="http://www.w3.org/1999/xlink" width="251.921875pt" height="255.10375pt" viewBox="0 0 251.921875 255.10375" xmlns="http://www.w3.org/2000/svg" version="1.1">
 <metadata>
  <rdf:RDF xmlns:dc="http://purl.org/dc/elements/1.1/" xmlns:cc="http://creativecommons.org/ns#" xmlns:rdf="http://www.w3.org/1999/02/22-rdf-syntax-ns#">
   <cc:Work>
    <dc:type rdf:resource="http://purl.org/dc/dcmitype/StillImage"/>
    <dc:date>2024-04-12T14:00:27.968833</dc:date>
    <dc:format>image/svg+xml</dc:format>
    <dc:creator>
     <cc:Agent>
      <dc:title>Matplotlib v3.8.3, https://matplotlib.org/</dc:title>
     </cc:Agent>
    </dc:creator>
   </cc:Work>
  </rdf:RDF>
 </metadata>
 <defs>
  <style type="text/css">*{stroke-linejoin: round; stroke-linecap: butt}</style>
 </defs>
 <g id="figure_1">
  <g id="patch_1">
   <path d="M 0 255.10375 
L 251.921875 255.10375 
L 251.921875 0 
L 0 0 
z
" style="fill: #ffffff"/>
  </g>
  <g id="axes_1">
   <g id="patch_2">
    <path d="M 25.121875 225.36 
L 248.321875 225.36 
L 248.321875 3.6 
L 25.121875 3.6 
z
" style="fill: #ffffff"/>
   </g>
   <g id="matplotlib.axis_1">
    <g id="xtick_1">
     <g id="line2d_1">
      <defs>
       <path id="mdd8f7d751c" d="M 0 0 
L 0 -3 
" style="stroke: #000000; stroke-width: 0.5"/>
      </defs>
      <g>
       <use xlink:href="#mdd8f7d751c" x="35.26733" y="225.36" style="stroke: #000000; stroke-width: 0.5"/>
      </g>
     </g>
     <g id="line2d_2">
      <defs>
       <path id="mfdd004b00f" d="M 0 0 
L 0 3 
" style="stroke: #000000; stroke-width: 0.5"/>
      </defs>
      <g>
       <use xlink:href="#mfdd004b00f" x="35.26733" y="3.6" style="stroke: #000000; stroke-width: 0.5"/>
      </g>
     </g>
     <g id="text_1">
      <!-- 1 -->
      <g transform="translate(32.943111 235.842812) scale(0.1 -0.1)">
       <defs>
        <path id="LinLibertine-31" d="M 1844 781 
Q 1844 397 1942 305 
Q 2041 213 2400 197 
Q 2431 166 2431 89 
Q 2431 13 2400 -13 
Q 1759 0 1619 0 
Q 1356 0 728 -13 
Q 703 13 703 89 
Q 703 166 728 197 
Q 1100 209 1225 309 
Q 1350 409 1350 781 
L 1350 2869 
Q 1350 3241 1222 3238 
Q 1050 3238 666 3078 
Q 588 3128 569 3250 
Q 1466 3666 1825 3891 
Q 1863 3891 1863 3859 
Q 1844 3713 1844 3003 
L 1844 781 
z
" transform="scale(0.015625)"/>
       </defs>
       <use xlink:href="#LinLibertine-31"/>
      </g>
     </g>
    </g>
    <g id="xtick_2">
     <g id="line2d_3">
      <g>
       <use xlink:href="#mdd8f7d751c" x="55.558239" y="225.36" style="stroke: #000000; stroke-width: 0.5"/>
      </g>
     </g>
     <g id="line2d_4">
      <g>
       <use xlink:href="#mfdd004b00f" x="55.558239" y="3.6" style="stroke: #000000; stroke-width: 0.5"/>
      </g>
     </g>
     <g id="text_2">
      <!-- 2 -->
      <g transform="translate(53.23402 235.842812) scale(0.1 -0.1)">
       <defs>
        <path id="LinLibertine-32" d="M 391 2994 
Q 391 3313 717 3608 
Q 1044 3903 1544 3903 
Q 1978 3903 2301 3658 
Q 2625 3413 2625 2931 
Q 2625 2700 2528 2495 
Q 2431 2291 2320 2159 
Q 2209 2028 1984 1813 
L 1338 1191 
Q 863 716 863 416 
L 2003 416 
Q 2175 416 2272 550 
Q 2369 684 2450 1031 
Q 2572 1056 2638 997 
Q 2625 550 2484 -13 
Q 2191 0 1984 0 
L 863 0 
L 331 -13 
Q 331 294 476 578 
Q 622 863 1063 1313 
L 1538 1778 
Q 2063 2309 2059 2906 
Q 2059 3322 1890 3501 
Q 1722 3681 1503 3681 
Q 1184 3681 1028 3559 
Q 872 3438 872 3291 
Q 872 3259 897 3201 
Q 922 3144 922 3138 
Q 947 3047 947 3003 
Q 947 2906 842 2826 
Q 738 2747 647 2747 
Q 544 2747 467 2819 
Q 391 2891 391 2994 
z
" transform="scale(0.015625)"/>
       </defs>
       <use xlink:href="#LinLibertine-32"/>
      </g>
     </g>
    </g>
    <g id="xtick_3">
     <g id="line2d_5">
      <g>
       <use xlink:href="#mdd8f7d751c" x="75.849148" y="225.36" style="stroke: #000000; stroke-width: 0.5"/>
      </g>
     </g>
     <g id="line2d_6">
      <g>
       <use xlink:href="#mfdd004b00f" x="75.849148" y="3.6" style="stroke: #000000; stroke-width: 0.5"/>
      </g>
     </g>
     <g id="text_3">
      <!-- 4 -->
      <g transform="translate(73.524929 235.842812) scale(0.1 -0.1)">
       <defs>
        <path id="LinLibertine-34" d="M 1734 3244 
Q 1247 2578 513 1403 
L 1734 1403 
L 1734 3244 
z
M 2753 1403 
Q 2850 1403 2847 1300 
Q 2847 1244 2786 1172 
Q 2725 1100 2663 1100 
L 2222 1100 
L 2222 513 
Q 2222 409 2237 348 
Q 2253 288 2320 259 
Q 2388 231 2425 225 
Q 2463 219 2603 203 
Q 2647 197 2669 197 
Q 2700 166 2700 89 
Q 2700 13 2669 -13 
Q 2259 0 1972 0 
Q 1625 0 1216 -13 
Q 1191 13 1191 89 
Q 1191 166 1216 197 
Q 1559 222 1644 291 
Q 1734 363 1734 513 
L 1734 1100 
L 428 1100 
Q 231 1100 178 1369 
Q 1169 2925 1913 3834 
Q 1969 3906 2016 3903 
L 2222 3903 
L 2234 3891 
Q 2222 3834 2222 3272 
L 2222 1403 
L 2753 1403 
z
" transform="scale(0.015625)"/>
       </defs>
       <use xlink:href="#LinLibertine-34"/>
      </g>
     </g>
    </g>
    <g id="xtick_4">
     <g id="line2d_7">
      <g>
       <use xlink:href="#mdd8f7d751c" x="96.140057" y="225.36" style="stroke: #000000; stroke-width: 0.5"/>
      </g>
     </g>
     <g id="line2d_8">
      <g>
       <use xlink:href="#mfdd004b00f" x="96.140057" y="3.6" style="stroke: #000000; stroke-width: 0.5"/>
      </g>
     </g>
     <g id="text_4">
      <!-- 8 -->
      <g transform="translate(93.815838 235.842812) scale(0.1 -0.1)">
       <defs>
        <path id="LinLibertine-38" d="M 1497 3681 
Q 1222 3681 1065 3526 
Q 909 3372 909 3144 
Q 909 2966 995 2808 
Q 1081 2650 1356 2472 
L 1556 2350 
Q 2069 2728 2069 3109 
Q 2069 3353 1930 3517 
Q 1791 3681 1497 3681 
z
M 2516 3103 
Q 2516 2828 2269 2595 
Q 2022 2363 1728 2216 
L 2181 1941 
Q 2681 1641 2681 1038 
Q 2681 628 2348 282 
Q 2016 -63 1434 -63 
Q 916 -63 605 195 
Q 294 453 294 934 
Q 294 1375 666 1703 
Q 888 1897 1181 2053 
L 1019 2156 
Q 456 2509 453 3022 
Q 453 3400 751 3651 
Q 1050 3903 1528 3903 
Q 1988 3903 2252 3679 
Q 2516 3456 2516 3103 
z
M 1447 159 
Q 1741 159 1978 323 
Q 2216 488 2216 909 
Q 2216 1422 1656 1759 
L 1356 1941 
Q 997 1703 859 1425 
Q 722 1147 722 934 
Q 722 544 950 351 
Q 1178 159 1447 159 
z
" transform="scale(0.015625)"/>
       </defs>
       <use xlink:href="#LinLibertine-38"/>
      </g>
     </g>
    </g>
    <g id="xtick_5">
     <g id="line2d_9">
      <g>
       <use xlink:href="#mdd8f7d751c" x="116.430966" y="225.36" style="stroke: #000000; stroke-width: 0.5"/>
      </g>
     </g>
     <g id="line2d_10">
      <g>
       <use xlink:href="#mfdd004b00f" x="116.430966" y="3.6" style="stroke: #000000; stroke-width: 0.5"/>
      </g>
     </g>
     <g id="text_5">
      <!-- 16 -->
      <g transform="translate(111.782528 235.842812) scale(0.1 -0.1)">
       <defs>
        <path id="LinLibertine-36" d="M 866 1966 
Q 813 1709 813 1466 
Q 813 709 1020 431 
Q 1228 153 1581 153 
Q 1831 153 1997 415 
Q 2163 678 2163 1178 
Q 2163 1319 2128 1462 
Q 2094 1606 2017 1759 
Q 1941 1913 1780 2013 
Q 1619 2113 1394 2113 
Q 1091 2113 866 1966 
z
M 925 2197 
Q 1228 2334 1528 2338 
Q 2138 2338 2416 2045 
Q 2694 1753 2694 1294 
Q 2694 800 2387 364 
Q 2081 -72 1509 -72 
Q 1297 -72 1106 -8 
Q 916 56 717 214 
Q 519 372 400 698 
Q 281 1025 281 1484 
Q 281 2341 878 3034 
Q 1409 3656 2278 3909 
Q 2356 3859 2356 3744 
Q 1766 3522 1420 3109 
Q 1075 2697 925 2197 
z
" transform="scale(0.015625)"/>
       </defs>
       <use xlink:href="#LinLibertine-31"/>
       <use xlink:href="#LinLibertine-36" x="46.484375"/>
      </g>
     </g>
    </g>
    <g id="xtick_6">
     <g id="line2d_11">
      <g>
       <use xlink:href="#mdd8f7d751c" x="136.721875" y="225.36" style="stroke: #000000; stroke-width: 0.5"/>
      </g>
     </g>
     <g id="line2d_12">
      <g>
       <use xlink:href="#mfdd004b00f" x="136.721875" y="3.6" style="stroke: #000000; stroke-width: 0.5"/>
      </g>
     </g>
     <g id="text_6">
      <!-- 32 -->
      <g transform="translate(132.073438 235.842812) scale(0.1 -0.1)">
       <defs>
        <path id="LinLibertine-33" d="M 1375 3681 
Q 1259 3681 1139 3648 
Q 1019 3616 894 3497 
Q 769 3378 769 3194 
Q 769 2863 519 2859 
Q 416 2859 358 2931 
Q 300 3003 300 3078 
Q 300 3175 361 3300 
Q 422 3425 550 3569 
Q 678 3713 931 3808 
Q 1184 3903 1509 3903 
Q 1963 3903 2209 3653 
Q 2409 3450 2409 3147 
Q 2409 2878 2261 2676 
Q 2113 2475 1734 2297 
L 1741 2284 
Q 2100 2228 2372 1984 
Q 2644 1741 2644 1275 
Q 2644 666 2220 301 
Q 1797 -63 1203 -63 
Q 884 -63 582 60 
Q 281 184 281 366 
Q 281 444 367 516 
Q 453 588 550 588 
Q 703 588 825 422 
Q 831 416 854 381 
Q 878 347 887 333 
Q 897 319 919 291 
Q 941 263 959 250 
Q 978 238 1014 214 
Q 1050 191 1087 181 
Q 1125 172 1176 165 
Q 1228 159 1288 159 
Q 1391 159 1508 204 
Q 1625 250 1762 348 
Q 1900 447 1990 665 
Q 2081 884 2081 1184 
Q 2081 2009 1241 2009 
Q 1044 2009 934 1997 
L 903 2203 
Q 1347 2266 1628 2548 
Q 1909 2831 1909 3103 
Q 1909 3300 1831 3433 
Q 1753 3566 1637 3623 
Q 1522 3681 1375 3681 
z
" transform="scale(0.015625)"/>
       </defs>
       <use xlink:href="#LinLibertine-33"/>
       <use xlink:href="#LinLibertine-32" x="46.484375"/>
      </g>
     </g>
    </g>
    <g id="xtick_7">
     <g id="line2d_13">
      <g>
       <use xlink:href="#mdd8f7d751c" x="157.012784" y="225.36" style="stroke: #000000; stroke-width: 0.5"/>
      </g>
     </g>
     <g id="line2d_14">
      <g>
       <use xlink:href="#mfdd004b00f" x="157.012784" y="3.6" style="stroke: #000000; stroke-width: 0.5"/>
      </g>
     </g>
     <g id="text_7">
      <!-- 64 -->
      <g transform="translate(152.364347 235.842812) scale(0.1 -0.1)">
       <use xlink:href="#LinLibertine-36"/>
       <use xlink:href="#LinLibertine-34" x="46.484375"/>
      </g>
     </g>
    </g>
    <g id="xtick_8">
     <g id="line2d_15">
      <g>
       <use xlink:href="#mdd8f7d751c" x="177.303693" y="225.36" style="stroke: #000000; stroke-width: 0.5"/>
      </g>
     </g>
     <g id="line2d_16">
      <g>
       <use xlink:href="#mfdd004b00f" x="177.303693" y="3.6" style="stroke: #000000; stroke-width: 0.5"/>
      </g>
     </g>
     <g id="text_8">
      <!-- 128 -->
      <g transform="translate(170.331037 235.842812) scale(0.1 -0.1)">
       <use xlink:href="#LinLibertine-31"/>
       <use xlink:href="#LinLibertine-32" x="46.484375"/>
       <use xlink:href="#LinLibertine-38" x="92.96875"/>
      </g>
     </g>
    </g>
    <g id="xtick_9">
     <g id="line2d_17">
      <g>
       <use xlink:href="#mdd8f7d751c" x="197.594602" y="225.36" style="stroke: #000000; stroke-width: 0.5"/>
      </g>
     </g>
     <g id="line2d_18">
      <g>
       <use xlink:href="#mfdd004b00f" x="197.594602" y="3.6" style="stroke: #000000; stroke-width: 0.5"/>
      </g>
     </g>
     <g id="text_9">
      <!-- 256 -->
      <g transform="translate(190.621946 235.842812) scale(0.1 -0.1)">
       <defs>
        <path id="LinLibertine-35" d="M 2041 1209 
Q 2041 1709 1836 1945 
Q 1631 2181 1300 2181 
Q 897 2181 488 2028 
L 703 3872 
Q 1075 3841 1394 3841 
Q 1778 3841 2444 3909 
L 2491 3884 
L 2388 3450 
Q 1991 3413 1716 3413 
Q 1497 3413 966 3469 
L 838 2400 
Q 1100 2503 1466 2503 
Q 1984 2503 2298 2158 
Q 2613 1813 2613 1325 
Q 2613 716 2231 322 
Q 1850 -72 1253 -72 
Q 959 -72 653 76 
Q 347 225 347 409 
Q 347 506 420 576 
Q 494 647 588 647 
Q 759 647 916 441 
Q 922 428 953 387 
Q 984 347 998 326 
Q 1013 306 1044 275 
Q 1075 244 1100 228 
Q 1125 213 1164 189 
Q 1203 166 1245 159 
Q 1288 153 1338 153 
Q 1631 153 1836 458 
Q 2041 763 2041 1209 
z
" transform="scale(0.015625)"/>
       </defs>
       <use xlink:href="#LinLibertine-32"/>
       <use xlink:href="#LinLibertine-35" x="46.484375"/>
       <use xlink:href="#LinLibertine-36" x="92.96875"/>
      </g>
     </g>
    </g>
    <g id="xtick_10">
     <g id="line2d_19">
      <g>
       <use xlink:href="#mdd8f7d751c" x="217.885511" y="225.36" style="stroke: #000000; stroke-width: 0.5"/>
      </g>
     </g>
     <g id="line2d_20">
      <g>
       <use xlink:href="#mfdd004b00f" x="217.885511" y="3.6" style="stroke: #000000; stroke-width: 0.5"/>
      </g>
     </g>
     <g id="text_10">
      <!-- 512 -->
      <g transform="translate(210.912855 235.842812) scale(0.1 -0.1)">
       <use xlink:href="#LinLibertine-35"/>
       <use xlink:href="#LinLibertine-31" x="46.484375"/>
       <use xlink:href="#LinLibertine-32" x="92.96875"/>
      </g>
     </g>
    </g>
    <g id="xtick_11">
     <g id="line2d_21">
      <g>
       <use xlink:href="#mdd8f7d751c" x="238.17642" y="225.36" style="stroke: #000000; stroke-width: 0.5"/>
      </g>
     </g>
     <g id="line2d_22">
      <g>
       <use xlink:href="#mfdd004b00f" x="238.17642" y="3.6" style="stroke: #000000; stroke-width: 0.5"/>
      </g>
     </g>
     <g id="text_11">
      <!-- 1024 -->
      <g transform="translate(228.879545 235.842812) scale(0.1 -0.1)">
       <defs>
        <path id="LinLibertine-30" d="M 1484 3681 
Q 1363 3681 1255 3603 
Q 1147 3525 1040 3340 
Q 934 3156 870 2762 
Q 806 2369 806 1813 
Q 806 163 1466 159 
Q 1522 159 1586 178 
Q 1650 197 1737 251 
Q 1825 306 1904 431 
Q 1984 556 2034 744 
Q 2144 1141 2144 2059 
Q 2144 3256 1772 3572 
Q 1650 3681 1484 3681 
z
M 1459 -63 
Q 1078 -63 809 206 
Q 547 466 398 916 
Q 250 1366 250 1881 
Q 250 2791 617 3347 
Q 984 3903 1484 3903 
Q 1953 3903 2266 3488 
Q 2700 2913 2700 1941 
Q 2700 1409 2578 998 
Q 2456 588 2262 367 
Q 2069 147 1862 42 
Q 1656 -63 1459 -63 
z
" transform="scale(0.015625)"/>
       </defs>
       <use xlink:href="#LinLibertine-31"/>
       <use xlink:href="#LinLibertine-30" x="46.484375"/>
       <use xlink:href="#LinLibertine-32" x="92.96875"/>
       <use xlink:href="#LinLibertine-34" x="139.453125"/>
      </g>
     </g>
    </g>
    <g id="xtick_12">
     <g id="line2d_23"/>
     <g id="line2d_24"/>
    </g>
    <g id="xtick_13">
     <g id="line2d_25"/>
     <g id="line2d_26"/>
    </g>
    <g id="xtick_14">
     <g id="line2d_27"/>
     <g id="line2d_28"/>
    </g>
    <g id="xtick_15">
     <g id="line2d_29"/>
     <g id="line2d_30"/>
    </g>
    <g id="xtick_16">
     <g id="line2d_31"/>
     <g id="line2d_32"/>
    </g>
    <g id="xtick_17">
     <g id="line2d_33"/>
     <g id="line2d_34"/>
    </g>
    <g id="xtick_18">
     <g id="line2d_35"/>
     <g id="line2d_36"/>
    </g>
    <g id="xtick_19">
     <g id="line2d_37"/>
     <g id="line2d_38"/>
    </g>
    <g id="xtick_20">
     <g id="line2d_39"/>
     <g id="line2d_40"/>
    </g>
    <g id="xtick_21">
     <g id="line2d_41"/>
     <g id="line2d_42"/>
    </g>
    <g id="xtick_22">
     <g id="line2d_43"/>
     <g id="line2d_44"/>
    </g>
    <g id="xtick_23">
     <g id="line2d_45"/>
     <g id="line2d_46"/>
    </g>
    <g id="xtick_24">
     <g id="line2d_47"/>
     <g id="line2d_48"/>
    </g>
    <g id="xtick_25">
     <g id="line2d_49"/>
     <g id="line2d_50"/>
    </g>
    <g id="xtick_26">
     <g id="line2d_51"/>
     <g id="line2d_52"/>
    </g>
    <g id="xtick_27">
     <g id="line2d_53"/>
     <g id="line2d_54"/>
    </g>
    <g id="xtick_28">
     <g id="line2d_55"/>
     <g id="line2d_56"/>
    </g>
    <g id="xtick_29">
     <g id="line2d_57"/>
     <g id="line2d_58"/>
    </g>
    <g id="xtick_30">
     <g id="line2d_59"/>
     <g id="line2d_60"/>
    </g>
    <g id="xtick_31">
     <g id="line2d_61"/>
     <g id="line2d_62"/>
    </g>
    <g id="xtick_32">
     <g id="line2d_63"/>
     <g id="line2d_64"/>
    </g>
    <g id="xtick_33">
     <g id="line2d_65"/>
     <g id="line2d_66"/>
    </g>
    <g id="xtick_34">
     <g id="line2d_67"/>
     <g id="line2d_68"/>
    </g>
    <g id="text_12">
     <!-- # of Atomics -->
     <g transform="translate(110.867188 249.164687) scale(0.1 -0.1)">
      <defs>
       <path id="LinLibertine-23" d="M 1784 1569 
L 1900 2303 
L 1178 2303 
L 1056 1569 
L 1784 1569 
z
M 2144 2303 
L 2022 1569 
L 2631 1569 
L 2584 1228 
L 1984 1228 
L 1791 91 
L 1550 91 
L 1722 1228 
L 1006 1228 
L 819 91 
L 581 91 
L 763 1228 
L 166 1228 
L 219 1569 
L 819 1569 
L 934 2303 
L 341 2303 
L 391 2644 
L 984 2644 
L 1172 3788 
L 1416 3788 
L 1222 2644 
L 1953 2644 
L 2131 3788 
L 2375 3788 
L 2188 2644 
L 2803 2644 
L 2753 2303 
L 2144 2303 
z
" transform="scale(0.015625)"/>
       <path id="LinLibertine-20" transform="scale(0.015625)"/>
       <path id="LinLibertine-6f" d="M 263 1313 
Q 263 1947 616 2363 
Q 997 2809 1619 2809 
Q 2078 2809 2395 2582 
Q 2713 2356 2838 2042 
Q 2963 1728 2963 1369 
Q 2963 700 2547 294 
Q 2181 -66 1606 -63 
Q 966 -63 614 353 
Q 263 769 263 1313 
z
M 1522 2584 
Q 813 2584 813 1459 
Q 813 1253 861 1042 
Q 909 831 1004 626 
Q 1100 422 1279 290 
Q 1459 159 1697 159 
Q 1978 159 2195 390 
Q 2413 622 2413 1166 
Q 2413 1850 2175 2217 
Q 1938 2584 1522 2584 
z
" transform="scale(0.015625)"/>
       <path id="LinLibertine-66" d="M 1119 781 
Q 1119 397 1203 308 
Q 1288 219 1625 197 
Q 1650 166 1650 89 
Q 1650 13 1625 -13 
Q 1075 0 872 0 
Q 738 0 197 -13 
Q 166 13 166 89 
Q 166 166 197 197 
Q 472 216 544 306 
Q 616 397 616 781 
L 616 2497 
L 172 2497 
Q 141 2497 141 2534 
L 141 2619 
Q 141 2747 288 2747 
L 616 2747 
L 616 3003 
Q 616 3700 958 4084 
Q 1300 4469 1747 4469 
Q 2131 4469 2322 4331 
Q 2528 4178 2528 4006 
Q 2528 3909 2439 3826 
Q 2350 3744 2266 3744 
Q 2100 3744 2009 3950 
Q 1947 4116 1859 4183 
Q 1772 4250 1625 4250 
Q 1119 4250 1119 3109 
L 1119 2747 
L 1813 2747 
Q 1863 2747 1863 2706 
L 1863 2578 
Q 1863 2494 1716 2497 
L 1119 2497 
L 1119 781 
z
" transform="scale(0.015625)"/>
       <path id="LinLibertine-41" d="M 1684 1813 
L 2816 1813 
L 2216 3553 
L 2175 3553 
L 1522 1897 
Q 1513 1878 1516 1862 
Q 1519 1847 1528 1837 
Q 1538 1828 1559 1822 
Q 1581 1816 1611 1814 
Q 1641 1813 1684 1813 
z
M 991 506 
Q 984 444 971 395 
Q 959 347 1007 314 
Q 1056 281 1084 262 
Q 1113 244 1191 228 
Q 1269 213 1312 209 
Q 1356 206 1434 197 
Q 1459 166 1459 89 
Q 1459 13 1434 -13 
Q 959 0 616 0 
Q 519 0 44 -13 
Q 13 13 13 89 
Q 13 166 44 197 
Q 288 216 428 297 
Q 569 378 684 653 
L 2138 4084 
Q 2278 4084 2491 4213 
L 3809 550 
Q 3847 434 3901 364 
Q 3956 294 4051 259 
Q 4147 225 4195 219 
Q 4244 213 4384 197 
Q 4416 166 4416 89 
Q 4416 13 4384 -13 
Q 3909 0 3653 0 
Q 3288 0 2816 -13 
Q 2791 13 2791 89 
Q 2791 166 2816 197 
Q 2853 197 2914 201 
Q 2975 206 3008 209 
Q 3041 213 3092 219 
Q 3144 225 3169 231 
Q 3194 238 3228 250 
Q 3263 263 3277 281 
Q 3291 300 3300 326 
Q 3309 353 3306 384 
Q 3303 416 3291 459 
L 2919 1544 
L 1569 1544 
Q 1453 1544 1411 1520 
Q 1369 1497 1344 1434 
L 991 506 
z
" transform="scale(0.015625)"/>
       <path id="LinLibertine-74" d="M 275 2747 
L 569 2747 
Q 569 2944 567 3086 
Q 566 3228 562 3293 
Q 559 3359 556 3396 
Q 553 3434 551 3453 
Q 550 3472 550 3488 
Q 550 3509 575 3528 
Q 600 3547 629 3556 
Q 659 3566 711 3581 
Q 763 3597 794 3609 
Q 831 3625 890 3656 
Q 950 3688 990 3706 
Q 1031 3725 1050 3725 
Q 1100 3725 1100 3669 
Q 1075 3413 1075 2994 
L 1075 2747 
L 1844 2747 
Q 1894 2747 1894 2706 
L 1894 2578 
Q 1894 2494 1741 2497 
L 1075 2497 
L 1075 878 
Q 1075 566 1120 427 
Q 1166 288 1288 288 
Q 1581 288 1813 469 
Q 1909 463 1925 359 
Q 1547 -63 1063 -63 
Q 569 -63 569 569 
L 569 2497 
L 191 2497 
Q 159 2497 159 2534 
L 159 2619 
Q 159 2747 275 2747 
z
" transform="scale(0.015625)"/>
       <path id="LinLibertine-6d" d="M 1106 2291 
Q 1106 2213 1150 2275 
Q 1159 2284 1166 2291 
Q 1659 2809 2138 2809 
Q 2381 2809 2556 2676 
Q 2731 2544 2778 2341 
Q 2794 2278 2847 2338 
Q 3006 2506 3197 2615 
Q 3388 2725 3559 2767 
Q 3731 2809 3903 2809 
Q 4294 2809 4428 2546 
Q 4563 2284 4563 1791 
L 4563 781 
Q 4563 397 4630 308 
Q 4697 219 4972 197 
Q 4997 172 4997 95 
Q 4997 19 4972 -13 
Q 4422 0 4313 0 
Q 4197 0 3659 -13 
Q 3634 19 3634 95 
Q 3634 172 3659 197 
Q 3922 216 3989 309 
Q 4056 403 4056 781 
L 4056 1906 
Q 4056 2213 3961 2345 
Q 3866 2478 3675 2478 
Q 3216 2478 2828 2053 
Q 2834 1975 2834 1797 
L 2834 781 
Q 2834 397 2898 308 
Q 2963 219 3213 197 
Q 3238 172 3238 92 
Q 3238 13 3213 -13 
Q 2663 0 2584 0 
Q 2469 0 1931 -13 
Q 1906 13 1906 89 
Q 1906 166 1931 197 
Q 2200 216 2264 306 
Q 2328 397 2328 781 
L 2328 1894 
Q 2328 2475 1906 2478 
Q 1600 2478 1216 2100 
Q 1106 1984 1106 1831 
L 1106 781 
Q 1106 513 1139 400 
Q 1172 288 1240 252 
Q 1309 216 1491 197 
Q 1519 169 1519 92 
Q 1519 16 1491 -13 
Q 953 0 856 0 
Q 691 0 166 -13 
Q 141 13 141 89 
Q 141 166 166 197 
Q 447 216 525 309 
Q 603 403 603 781 
L 603 2028 
Q 603 2297 528 2367 
Q 453 2438 184 2463 
Q 147 2572 172 2644 
Q 672 2706 978 2828 
Q 1028 2828 1056 2778 
Q 1106 2663 1106 2291 
z
" transform="scale(0.015625)"/>
       <path id="LinLibertine-69" d="M 575 3834 
Q 575 3950 684 4045 
Q 794 4141 909 4141 
Q 1031 4141 1123 4034 
Q 1216 3928 1216 3809 
Q 1216 3700 1114 3600 
Q 1013 3500 884 3500 
Q 769 3500 672 3606 
Q 575 3713 575 3834 
z
M 1159 781 
Q 1159 397 1236 308 
Q 1313 219 1619 197 
Q 1650 166 1650 89 
Q 1650 13 1619 -13 
Q 1069 0 909 0 
Q 731 0 191 -13 
Q 166 13 166 89 
Q 166 166 191 197 
Q 497 222 575 309 
Q 653 397 653 781 
L 653 2028 
Q 653 2297 579 2367 
Q 506 2438 238 2463 
Q 200 2572 225 2644 
Q 819 2722 1100 2828 
Q 1184 2828 1184 2784 
Q 1184 2769 1181 2739 
Q 1178 2709 1175 2620 
Q 1172 2531 1167 2448 
Q 1163 2366 1161 2256 
Q 1159 2147 1159 2056 
L 1159 781 
z
" transform="scale(0.015625)"/>
       <path id="LinLibertine-63" d="M 2547 581 
Q 2322 209 2073 73 
Q 1825 -63 1503 -63 
Q 909 -63 573 317 
Q 238 697 238 1331 
Q 238 1978 641 2393 
Q 1044 2809 1550 2809 
Q 2003 2809 2265 2640 
Q 2528 2472 2528 2203 
Q 2528 2069 2428 1994 
Q 2328 1919 2216 1919 
Q 1997 1919 1972 2150 
Q 1959 2291 1929 2370 
Q 1900 2450 1798 2523 
Q 1697 2597 1516 2597 
Q 1197 2597 992 2294 
Q 788 1991 788 1472 
Q 788 922 1038 586 
Q 1288 250 1644 250 
Q 2084 250 2413 672 
Q 2516 659 2547 581 
z
" transform="scale(0.015625)"/>
       <path id="LinLibertine-73" d="M 306 884 
Q 338 916 406 916 
Q 475 916 506 891 
Q 616 438 756 300 
Q 897 147 1209 147 
Q 1416 147 1584 262 
Q 1753 378 1753 594 
Q 1753 806 1622 934 
Q 1491 1063 1100 1222 
Q 716 1381 556 1567 
Q 397 1753 397 2094 
Q 397 2394 665 2601 
Q 934 2809 1300 2809 
Q 1447 2809 1600 2787 
Q 1753 2766 1923 2730 
Q 2094 2694 2138 2688 
Q 2138 2603 2119 2370 
Q 2100 2138 2100 2009 
Q 2069 1978 1997 1978 
Q 1925 1978 1894 2003 
Q 1863 2194 1789 2322 
Q 1716 2450 1616 2504 
Q 1516 2559 1442 2578 
Q 1369 2597 1300 2597 
Q 1128 2597 989 2486 
Q 850 2375 850 2188 
Q 850 2084 884 2003 
Q 919 1922 961 1870 
Q 1003 1819 1103 1764 
Q 1203 1709 1272 1681 
Q 1341 1653 1491 1594 
Q 2241 1309 2241 744 
Q 2241 519 2134 351 
Q 2028 184 1862 98 
Q 1697 13 1536 -25 
Q 1375 -63 1222 -63 
Q 909 -63 641 6 
Q 597 19 513 19 
Q 450 19 353 0 
Q 350 334 306 884 
z
" transform="scale(0.015625)"/>
      </defs>
      <use xlink:href="#LinLibertine-23"/>
      <use xlink:href="#LinLibertine-20" x="46.484375"/>
      <use xlink:href="#LinLibertine-6f" x="71.484375"/>
      <use xlink:href="#LinLibertine-66" x="121.875"/>
      <use xlink:href="#LinLibertine-20" x="152.832031"/>
      <use xlink:href="#LinLibertine-41" x="177.832031"/>
      <use xlink:href="#LinLibertine-74" x="247.314453"/>
      <use xlink:href="#LinLibertine-6f" x="278.90625"/>
      <use xlink:href="#LinLibertine-6d" x="329.296875"/>
      <use xlink:href="#LinLibertine-69" x="408.251953"/>
      <use xlink:href="#LinLibertine-63" x="435.351562"/>
      <use xlink:href="#LinLibertine-73" x="478.125"/>
     </g>
    </g>
   </g>
   <g id="matplotlib.axis_2">
    <g id="ytick_1">
     <g id="line2d_69">
      <defs>
       <path id="md3b3114a4a" d="M 0 0 
L 3 0 
" style="stroke: #000000; stroke-width: 0.5"/>
      </defs>
      <g>
       <use xlink:href="#md3b3114a4a" x="25.121875" y="216.236493" style="stroke: #000000; stroke-width: 0.5"/>
      </g>
     </g>
     <g id="line2d_70">
      <defs>
       <path id="mb6fa6a4bb7" d="M 0 0 
L -3 0 
" style="stroke: #000000; stroke-width: 0.5"/>
      </defs>
      <g>
       <use xlink:href="#mb6fa6a4bb7" x="248.321875" y="216.236493" style="stroke: #000000; stroke-width: 0.5"/>
      </g>
     </g>
     <g id="text_13">
      <!-- $\mathdefault{0}$ -->
      <g transform="translate(16.921875 219.727899) scale(0.1 -0.1)">
       <use xlink:href="#LinLibertine-30" transform="translate(0 0.015625)"/>
      </g>
     </g>
    </g>
    <g id="ytick_2">
     <g id="line2d_71">
      <g>
       <use xlink:href="#md3b3114a4a" x="25.121875" y="168.762888" style="stroke: #000000; stroke-width: 0.5"/>
      </g>
     </g>
     <g id="line2d_72">
      <g>
       <use xlink:href="#mb6fa6a4bb7" x="248.321875" y="168.762888" style="stroke: #000000; stroke-width: 0.5"/>
      </g>
     </g>
     <g id="text_14">
      <!-- $\mathdefault{2}$ -->
      <g transform="translate(16.921875 172.254295) scale(0.1 -0.1)">
       <use xlink:href="#LinLibertine-32" transform="translate(0 0.015625)"/>
      </g>
     </g>
    </g>
    <g id="ytick_3">
     <g id="line2d_73">
      <g>
       <use xlink:href="#md3b3114a4a" x="25.121875" y="121.289284" style="stroke: #000000; stroke-width: 0.5"/>
      </g>
     </g>
     <g id="line2d_74">
      <g>
       <use xlink:href="#mb6fa6a4bb7" x="248.321875" y="121.289284" style="stroke: #000000; stroke-width: 0.5"/>
      </g>
     </g>
     <g id="text_15">
      <!-- $\mathdefault{4}$ -->
      <g transform="translate(16.921875 124.78069) scale(0.1 -0.1)">
       <use xlink:href="#LinLibertine-34" transform="translate(0 0.96875)"/>
      </g>
     </g>
    </g>
    <g id="ytick_4">
     <g id="line2d_75">
      <g>
       <use xlink:href="#md3b3114a4a" x="25.121875" y="73.81568" style="stroke: #000000; stroke-width: 0.5"/>
      </g>
     </g>
     <g id="line2d_76">
      <g>
       <use xlink:href="#mb6fa6a4bb7" x="248.321875" y="73.81568" style="stroke: #000000; stroke-width: 0.5"/>
      </g>
     </g>
     <g id="text_16">
      <!-- $\mathdefault{6}$ -->
      <g transform="translate(16.921875 77.307086) scale(0.1 -0.1)">
       <use xlink:href="#LinLibertine-36" transform="translate(0 0.921875)"/>
      </g>
     </g>
    </g>
    <g id="ytick_5">
     <g id="line2d_77">
      <g>
       <use xlink:href="#md3b3114a4a" x="25.121875" y="26.342075" style="stroke: #000000; stroke-width: 0.5"/>
      </g>
     </g>
     <g id="line2d_78">
      <g>
       <use xlink:href="#mb6fa6a4bb7" x="248.321875" y="26.342075" style="stroke: #000000; stroke-width: 0.5"/>
      </g>
     </g>
     <g id="text_17">
      <!-- $\mathdefault{8}$ -->
      <g transform="translate(16.921875 29.833482) scale(0.1 -0.1)">
       <use xlink:href="#LinLibertine-38" transform="translate(0 0.015625)"/>
      </g>
     </g>
    </g>
    <g id="ytick_6">
     <g id="line2d_79"/>
     <g id="line2d_80"/>
    </g>
    <g id="ytick_7">
     <g id="line2d_81"/>
     <g id="line2d_82"/>
    </g>
    <g id="ytick_8">
     <g id="line2d_83"/>
     <g id="line2d_84"/>
    </g>
    <g id="ytick_9">
     <g id="line2d_85"/>
     <g id="line2d_86"/>
    </g>
    <g id="ytick_10">
     <g id="line2d_87"/>
     <g id="line2d_88"/>
    </g>
    <g id="ytick_11">
     <g id="line2d_89"/>
     <g id="line2d_90"/>
    </g>
    <g id="ytick_12">
     <g id="line2d_91"/>
     <g id="line2d_92"/>
    </g>
    <g id="ytick_13">
     <g id="line2d_93"/>
     <g id="line2d_94"/>
    </g>
    <g id="ytick_14">
     <g id="line2d_95"/>
     <g id="line2d_96"/>
    </g>
    <g id="ytick_15">
     <g id="line2d_97"/>
     <g id="line2d_98"/>
    </g>
    <g id="ytick_16">
     <g id="line2d_99"/>
     <g id="line2d_100"/>
    </g>
    <g id="ytick_17">
     <g id="line2d_101"/>
     <g id="line2d_102"/>
    </g>
    <g id="ytick_18">
     <g id="line2d_103"/>
     <g id="line2d_104"/>
    </g>
    <g id="text_18">
     <!-- Relative atomic operation speedup -->
     <g transform="translate(10.582812 184.909687) rotate(-90) scale(0.1 -0.1)">
      <defs>
       <path id="LinLibertine-52" d="M 1741 3956 
Q 1209 3956 1209 3547 
L 1209 2081 
L 1516 2081 
Q 2034 2081 2312 2292 
Q 2591 2503 2591 3059 
Q 2591 3956 1741 3956 
z
M 1209 781 
Q 1209 397 1309 305 
Q 1409 213 1766 197 
Q 1791 166 1791 89 
Q 1791 13 1766 -13 
Q 1125 0 941 0 
Q 734 0 109 -13 
Q 78 13 78 89 
Q 78 166 109 197 
Q 469 209 567 303 
Q 666 397 666 781 
L 666 3347 
Q 666 3731 567 3823 
Q 469 3916 109 3928 
Q 78 3953 78 4031 
Q 78 4109 109 4141 
Q 750 4128 934 4128 
Q 1069 4128 1366 4150 
Q 1663 4172 1734 4172 
Q 2113 4172 2375 4114 
Q 2638 4056 2841 3866 
Q 3181 3547 3181 3066 
Q 3181 2625 2903 2347 
Q 2625 2069 2328 1972 
L 3138 628 
Q 3284 384 3418 259 
Q 3553 134 3750 134 
Q 3794 50 3756 -19 
Q 3666 -63 3488 -63 
Q 2994 -63 2644 506 
L 1959 1619 
Q 1881 1747 1731 1805 
Q 1581 1863 1209 1863 
L 1209 781 
z
" transform="scale(0.015625)"/>
       <path id="LinLibertine-65" d="M 794 1806 
L 1953 1825 
Q 2050 1825 2047 1913 
Q 2047 2278 1890 2431 
Q 1734 2584 1516 2584 
Q 1431 2584 1350 2562 
Q 1269 2541 1150 2470 
Q 1031 2400 934 2228 
Q 838 2056 794 1806 
z
M 2472 594 
Q 2581 588 2606 494 
Q 2178 -63 1516 -63 
Q 881 -63 538 347 
Q 238 694 238 1294 
Q 238 1972 644 2384 
Q 1050 2797 1516 2797 
Q 2597 2797 2597 1684 
Q 2597 1575 2478 1575 
L 775 1588 
Q 775 1050 978 709 
Q 1259 250 1678 250 
Q 1947 250 2117 326 
Q 2288 403 2472 594 
z
" transform="scale(0.015625)"/>
       <path id="LinLibertine-6c" d="M 609 781 
L 609 3578 
Q 609 3784 598 3886 
Q 588 3988 517 4036 
Q 447 4084 409 4087 
Q 372 4091 197 4103 
Q 125 4175 159 4294 
Q 728 4338 1056 4469 
Q 1141 4469 1141 4403 
Q 1116 4147 1113 3731 
L 1113 781 
Q 1113 397 1194 305 
Q 1275 213 1575 197 
Q 1600 166 1600 89 
Q 1600 13 1575 -13 
Q 1025 0 863 0 
Q 684 0 147 -13 
Q 116 13 116 89 
Q 116 166 147 197 
Q 447 209 528 303 
Q 609 397 609 781 
z
" transform="scale(0.015625)"/>
       <path id="LinLibertine-61" d="M 1875 1491 
L 1369 1356 
Q 759 1203 763 653 
Q 763 481 880 339 
Q 997 197 1222 197 
Q 1447 197 1784 475 
Q 1875 538 1875 641 
L 1875 1491 
z
M 1875 306 
L 1863 306 
L 1734 206 
Q 1522 41 1387 -11 
Q 1253 -63 1038 -63 
Q 672 -63 451 103 
Q 231 269 231 628 
Q 231 947 522 1190 
Q 813 1434 1288 1556 
L 1838 1691 
Q 1875 1703 1875 1766 
Q 1875 2597 1356 2597 
Q 1144 2597 984 2530 
Q 825 2463 825 2328 
Q 825 2238 838 2203 
Q 856 2166 856 2088 
Q 856 2016 779 1945 
Q 703 1875 575 1875 
Q 350 1875 353 2100 
Q 353 2363 686 2586 
Q 1019 2809 1409 2809 
Q 2375 2809 2375 1728 
L 2375 775 
Q 2375 591 2384 494 
Q 2394 397 2455 314 
Q 2516 231 2631 231 
Q 2709 231 2765 281 
Q 2822 331 2828 331 
Q 2847 331 2880 293 
Q 2913 256 2913 225 
Q 2913 206 2845 139 
Q 2778 72 2643 4 
Q 2509 -63 2369 -63 
Q 1984 -66 1875 306 
z
" transform="scale(0.015625)"/>
       <path id="LinLibertine-76" d="M 2081 2547 
Q 2050 2572 2048 2648 
Q 2047 2725 2081 2759 
Q 2556 2747 2695 2747 
Q 2834 2747 3116 2759 
Q 3147 2728 3148 2650 
Q 3150 2572 3116 2547 
Q 2984 2534 2898 2503 
Q 2813 2472 2750 2398 
Q 2688 2325 2656 2265 
Q 2625 2206 2569 2075 
L 1716 72 
Q 1653 -75 1563 -78 
Q 1453 -78 1403 56 
L 584 2081 
Q 575 2103 563 2138 
Q 472 2369 392 2444 
Q 313 2519 72 2547 
Q 41 2572 39 2648 
Q 38 2725 72 2759 
Q 547 2747 634 2747 
Q 841 2747 1313 2759 
Q 1344 2728 1344 2650 
Q 1344 2572 1313 2547 
Q 1238 2541 1186 2530 
Q 1134 2519 1096 2511 
Q 1059 2503 1045 2475 
Q 1031 2447 1020 2436 
Q 1009 2425 1021 2378 
Q 1034 2331 1039 2312 
Q 1044 2294 1072 2222 
Q 1100 2150 1113 2119 
L 1575 884 
Q 1653 688 1693 680 
Q 1734 672 1813 863 
L 2328 2119 
Q 2431 2363 2384 2445 
Q 2338 2528 2081 2547 
z
" transform="scale(0.015625)"/>
       <path id="LinLibertine-70" d="M 1119 2119 
Q 1016 1991 1019 1838 
L 1019 672 
Q 1019 553 1031 492 
Q 1044 431 1072 392 
Q 1100 353 1172 288 
Q 1250 219 1383 186 
Q 1516 153 1625 153 
Q 1881 153 2067 259 
Q 2253 366 2348 547 
Q 2444 728 2486 920 
Q 2528 1113 2528 1331 
Q 2528 1856 2308 2186 
Q 2088 2516 1766 2516 
Q 1631 2516 1439 2397 
Q 1247 2278 1119 2119 
z
M 1019 2356 
Q 1019 2325 1037 2317 
Q 1056 2309 1069 2328 
Q 1478 2809 1947 2809 
Q 2428 2809 2753 2418 
Q 3078 2028 3078 1503 
Q 3078 753 2606 294 
Q 2228 -66 1663 -63 
Q 1350 -63 1106 34 
Q 1056 59 1037 53 
Q 1019 47 1019 -13 
L 1019 -703 
Q 1019 -1088 1105 -1178 
Q 1191 -1269 1544 -1288 
Q 1575 -1319 1575 -1395 
Q 1575 -1472 1544 -1497 
Q 994 -1484 769 -1484 
Q 591 -1484 50 -1497 
Q 25 -1472 25 -1395 
Q 25 -1319 50 -1288 
Q 350 -1275 431 -1181 
Q 513 -1088 513 -703 
L 513 2028 
Q 513 2297 439 2367 
Q 366 2438 97 2463 
Q 59 2572 84 2644 
Q 584 2706 891 2828 
Q 941 2828 966 2778 
Q 1019 2663 1019 2356 
z
" transform="scale(0.015625)"/>
       <path id="LinLibertine-72" d="M 1147 2291 
Q 1147 2259 1156 2246 
Q 1166 2234 1197 2278 
Q 1325 2497 1514 2653 
Q 1703 2809 1906 2809 
Q 2091 2809 2191 2711 
Q 2291 2613 2291 2503 
Q 2291 2381 2198 2281 
Q 2106 2181 1991 2181 
Q 1947 2181 1901 2204 
Q 1856 2228 1834 2250 
Q 1813 2272 1777 2314 
Q 1741 2356 1728 2369 
Q 1684 2413 1594 2413 
Q 1516 2413 1300 2100 
Q 1147 1869 1147 1672 
L 1147 781 
Q 1147 397 1233 311 
Q 1319 225 1672 197 
Q 1703 166 1703 89 
Q 1703 13 1672 -13 
Q 1122 0 897 0 
Q 706 0 166 -13 
Q 141 13 141 89 
Q 141 166 166 197 
Q 478 216 559 306 
Q 641 397 641 781 
L 641 2028 
Q 641 2297 567 2367 
Q 494 2438 225 2463 
Q 188 2572 213 2644 
Q 713 2706 1019 2828 
Q 1069 2828 1094 2778 
Q 1147 2663 1147 2291 
z
" transform="scale(0.015625)"/>
       <path id="LinLibertine-6e" d="M 1178 2291 
Q 1647 2809 2228 2809 
Q 2594 2809 2759 2591 
Q 2931 2359 2931 1734 
L 2931 781 
Q 2931 403 3004 314 
Q 3078 225 3359 197 
Q 3384 172 3384 95 
Q 3384 19 3359 -13 
Q 2809 0 2681 0 
Q 2566 0 2028 -13 
Q 2003 13 2003 89 
Q 2003 166 2028 197 
Q 2291 222 2358 312 
Q 2425 403 2425 781 
L 2425 1753 
Q 2425 2094 2350 2247 
Q 2228 2478 2009 2478 
Q 1619 2478 1228 2100 
Q 1119 1978 1119 1831 
L 1119 781 
Q 1119 403 1183 314 
Q 1247 225 1503 197 
Q 1534 166 1536 89 
Q 1538 13 1503 -13 
Q 966 0 872 0 
Q 694 0 166 -13 
Q 141 13 141 89 
Q 141 166 166 197 
Q 466 222 541 309 
Q 616 397 616 781 
L 616 2028 
Q 616 2297 542 2367 
Q 469 2438 197 2463 
Q 159 2572 184 2644 
Q 684 2706 991 2828 
Q 1041 2828 1069 2778 
Q 1119 2663 1119 2291 
Q 1122 2213 1178 2291 
z
" transform="scale(0.015625)"/>
       <path id="LinLibertine-64" d="M 2209 794 
L 2209 2009 
Q 2209 2156 2189 2217 
Q 2169 2278 2100 2356 
Q 1903 2588 1581 2584 
Q 1197 2584 984 2266 
Q 800 2003 800 1416 
Q 800 853 1011 545 
Q 1222 238 1503 238 
Q 1753 238 2106 544 
Q 2209 634 2209 794 
z
M 2138 322 
Q 1669 -63 1338 -63 
Q 831 -63 540 314 
Q 250 691 250 1300 
Q 250 1984 691 2425 
Q 1094 2809 1650 2809 
Q 1747 2809 1862 2781 
Q 1978 2753 2061 2726 
Q 2144 2700 2150 2700 
Q 2206 2700 2209 2759 
L 2209 3578 
Q 2209 3784 2198 3886 
Q 2188 3988 2117 4036 
Q 2047 4084 2009 4087 
Q 1972 4091 1797 4103 
Q 1725 4175 1759 4294 
Q 2328 4338 2656 4469 
Q 2741 4469 2741 4403 
Q 2716 4147 2713 3731 
L 2713 831 
Q 2713 581 2800 486 
Q 2888 391 3181 366 
Q 3213 334 3213 276 
Q 3213 219 3181 191 
Q 2644 128 2406 -63 
Q 2334 -81 2284 -63 
Q 2213 163 2216 313 
Q 2216 328 2208 336 
Q 2200 344 2187 344 
Q 2175 344 2162 337 
Q 2150 331 2138 322 
z
" transform="scale(0.015625)"/>
       <path id="LinLibertine-75" d="M 1388 -63 
Q 947 -63 755 182 
Q 563 428 563 806 
L 563 2034 
Q 563 2334 483 2431 
Q 403 2528 166 2547 
Q 141 2572 141 2648 
Q 141 2725 166 2759 
Q 641 2747 819 2747 
Q 978 2747 1044 2759 
Q 1094 2759 1094 2719 
Q 1069 2250 1069 2059 
L 1069 897 
Q 1069 519 1225 378 
Q 1381 238 1581 238 
Q 1869 238 2222 544 
Q 2325 634 2322 794 
L 2322 2028 
Q 2322 2334 2245 2434 
Q 2169 2534 1925 2547 
Q 1894 2572 1894 2648 
Q 1894 2725 1925 2759 
Q 2400 2747 2578 2747 
Q 2738 2747 2803 2759 
Q 2853 2759 2853 2719 
Q 2828 2250 2828 2059 
L 2828 831 
Q 2828 581 2915 486 
Q 3003 391 3297 366 
Q 3328 334 3328 276 
Q 3328 219 3297 191 
Q 2759 128 2522 -63 
Q 2450 -81 2400 -63 
Q 2328 169 2328 313 
Q 2328 384 2253 319 
Q 1784 -63 1388 -63 
z
" transform="scale(0.015625)"/>
      </defs>
      <use xlink:href="#LinLibertine-52"/>
      <use xlink:href="#LinLibertine-65" x="58.691406"/>
      <use xlink:href="#LinLibertine-6c" x="103.369141"/>
      <use xlink:href="#LinLibertine-61" x="129.736328"/>
      <use xlink:href="#LinLibertine-74" x="175.390625"/>
      <use xlink:href="#LinLibertine-69" x="206.982422"/>
      <use xlink:href="#LinLibertine-76" x="234.082031"/>
      <use xlink:href="#LinLibertine-65" x="283.740234"/>
      <use xlink:href="#LinLibertine-20" x="328.417969"/>
      <use xlink:href="#LinLibertine-61" x="353.417969"/>
      <use xlink:href="#LinLibertine-74" x="399.072266"/>
      <use xlink:href="#LinLibertine-6f" x="430.664062"/>
      <use xlink:href="#LinLibertine-6d" x="481.054688"/>
      <use xlink:href="#LinLibertine-69" x="560.009766"/>
      <use xlink:href="#LinLibertine-63" x="587.109375"/>
      <use xlink:href="#LinLibertine-20" x="629.882812"/>
      <use xlink:href="#LinLibertine-6f" x="654.882812"/>
      <use xlink:href="#LinLibertine-70" x="705.273438"/>
      <use xlink:href="#LinLibertine-65" x="757.128906"/>
      <use xlink:href="#LinLibertine-72" x="801.806641"/>
      <use xlink:href="#LinLibertine-61" x="838.964844"/>
      <use xlink:href="#LinLibertine-74" x="884.619141"/>
      <use xlink:href="#LinLibertine-69" x="916.210938"/>
      <use xlink:href="#LinLibertine-6f" x="943.310547"/>
      <use xlink:href="#LinLibertine-6e" x="993.701172"/>
      <use xlink:href="#LinLibertine-20" x="1047.900391"/>
      <use xlink:href="#LinLibertine-73" x="1072.900391"/>
      <use xlink:href="#LinLibertine-70" x="1111.865234"/>
      <use xlink:href="#LinLibertine-65" x="1163.720703"/>
      <use xlink:href="#LinLibertine-65" x="1208.398438"/>
      <use xlink:href="#LinLibertine-64" x="1253.076172"/>
      <use xlink:href="#LinLibertine-75" x="1303.662109"/>
      <use xlink:href="#LinLibertine-70" x="1356.738281"/>
     </g>
    </g>
   </g>
   <g id="line2d_105">
    <path d="M 35.26733 192.499691 
L 55.558239 176.669546 
L 75.849148 154.762545 
L 96.140057 128.003137 
L 116.430966 92.97778 
L 136.721875 117.991176 
L 157.012784 136.897169 
L 177.303693 109.706563 
L 197.594602 81.842468 
L 217.885511 48.792271 
L 238.17642 13.68 
" clip-path="url(#p8f404d69ee)" style="fill: none; stroke: #0c5da5; stroke-linecap: square"/>
    <defs>
     <path id="m17da8557e5" d="M 0 3 
C 0.795609 3 1.55874 2.683901 2.12132 2.12132 
C 2.683901 1.55874 3 0.795609 3 0 
C 3 -0.795609 2.683901 -1.55874 2.12132 -2.12132 
C 1.55874 -2.683901 0.795609 -3 0 -3 
C -0.795609 -3 -1.55874 -2.683901 -2.12132 -2.12132 
C -2.683901 -1.55874 -3 -0.795609 -3 0 
C -3 0.795609 -2.683901 1.55874 -2.12132 2.12132 
C -1.55874 2.683901 -0.795609 3 0 3 
z
" style="stroke: #0c5da5"/>
    </defs>
    <g clip-path="url(#p8f404d69ee)">
     <use xlink:href="#m17da8557e5" x="35.26733" y="192.499691" style="fill: #0c5da5; stroke: #0c5da5"/>
     <use xlink:href="#m17da8557e5" x="55.558239" y="176.669546" style="fill: #0c5da5; stroke: #0c5da5"/>
     <use xlink:href="#m17da8557e5" x="75.849148" y="154.762545" style="fill: #0c5da5; stroke: #0c5da5"/>
     <use xlink:href="#m17da8557e5" x="96.140057" y="128.003137" style="fill: #0c5da5; stroke: #0c5da5"/>
     <use xlink:href="#m17da8557e5" x="116.430966" y="92.97778" style="fill: #0c5da5; stroke: #0c5da5"/>
     <use xlink:href="#m17da8557e5" x="136.721875" y="117.991176" style="fill: #0c5da5; stroke: #0c5da5"/>
     <use xlink:href="#m17da8557e5" x="157.012784" y="136.897169" style="fill: #0c5da5; stroke: #0c5da5"/>
     <use xlink:href="#m17da8557e5" x="177.303693" y="109.706563" style="fill: #0c5da5; stroke: #0c5da5"/>
     <use xlink:href="#m17da8557e5" x="197.594602" y="81.842468" style="fill: #0c5da5; stroke: #0c5da5"/>
     <use xlink:href="#m17da8557e5" x="217.885511" y="48.792271" style="fill: #0c5da5; stroke: #0c5da5"/>
     <use xlink:href="#m17da8557e5" x="238.17642" y="13.68" style="fill: #0c5da5; stroke: #0c5da5"/>
    </g>
   </g>
   <g id="line2d_106">
    <path d="M 35.26733 192.499691 
L 55.558239 169.510166 
L 75.849148 134.761109 
L 96.140057 95.87402 
L 116.430966 106.937325 
L 136.721875 114.615264 
L 157.012784 83.409956 
L 177.303693 69.085705 
L 197.594602 47.613269 
L 217.885511 71.151828 
L 238.17642 69.074978 
" clip-path="url(#p8f404d69ee)" style="fill: none; stroke: #00b945; stroke-linecap: square"/>
    <defs>
     <path id="m52607afa40" d="M 0 3 
C 0.795609 3 1.55874 2.683901 2.12132 2.12132 
C 2.683901 1.55874 3 0.795609 3 0 
C 3 -0.795609 2.683901 -1.55874 2.12132 -2.12132 
C 1.55874 -2.683901 0.795609 -3 0 -3 
C -0.795609 -3 -1.55874 -2.683901 -2.12132 -2.12132 
C -2.683901 -1.55874 -3 -0.795609 -3 0 
C -3 0.795609 -2.683901 1.55874 -2.12132 2.12132 
C -1.55874 2.683901 -0.795609 3 0 3 
z
" style="stroke: #00b945"/>
    </defs>
    <g clip-path="url(#p8f404d69ee)">
     <use xlink:href="#m52607afa40" x="35.26733" y="192.499691" style="fill: #00b945; stroke: #00b945"/>
     <use xlink:href="#m52607afa40" x="55.558239" y="169.510166" style="fill: #00b945; stroke: #00b945"/>
     <use xlink:href="#m52607afa40" x="75.849148" y="134.761109" style="fill: #00b945; stroke: #00b945"/>
     <use xlink:href="#m52607afa40" x="96.140057" y="95.87402" style="fill: #00b945; stroke: #00b945"/>
     <use xlink:href="#m52607afa40" x="116.430966" y="106.937325" style="fill: #00b945; stroke: #00b945"/>
     <use xlink:href="#m52607afa40" x="136.721875" y="114.615264" style="fill: #00b945; stroke: #00b945"/>
     <use xlink:href="#m52607afa40" x="157.012784" y="83.409956" style="fill: #00b945; stroke: #00b945"/>
     <use xlink:href="#m52607afa40" x="177.303693" y="69.085705" style="fill: #00b945; stroke: #00b945"/>
     <use xlink:href="#m52607afa40" x="197.594602" y="47.613269" style="fill: #00b945; stroke: #00b945"/>
     <use xlink:href="#m52607afa40" x="217.885511" y="71.151828" style="fill: #00b945; stroke: #00b945"/>
     <use xlink:href="#m52607afa40" x="238.17642" y="69.074978" style="fill: #00b945; stroke: #00b945"/>
    </g>
   </g>
   <g id="line2d_107">
    <path d="M 35.26733 192.499691 
L 55.558239 214.616679 
L 75.849148 213.938975 
L 96.140057 213.82559 
L 116.430966 214.079004 
L 136.721875 214.531651 
L 157.012784 214.884654 
L 177.303693 215.093175 
L 197.594602 215.202506 
L 217.885511 215.253624 
L 238.17642 215.28 
" clip-path="url(#p8f404d69ee)" style="fill: none; stroke: #ff9500; stroke-linecap: square"/>
    <defs>
     <path id="m92148a01e2" d="M 0 3 
C 0.795609 3 1.55874 2.683901 2.12132 2.12132 
C 2.683901 1.55874 3 0.795609 3 0 
C 3 -0.795609 2.683901 -1.55874 2.12132 -2.12132 
C 1.55874 -2.683901 0.795609 -3 0 -3 
C -0.795609 -3 -1.55874 -2.683901 -2.12132 -2.12132 
C -2.683901 -1.55874 -3 -0.795609 -3 0 
C -3 0.795609 -2.683901 1.55874 -2.12132 2.12132 
C -1.55874 2.683901 -0.795609 3 0 3 
z
" style="stroke: #ff9500"/>
    </defs>
    <g clip-path="url(#p8f404d69ee)">
     <use xlink:href="#m92148a01e2" x="35.26733" y="192.499691" style="fill: #ff9500; stroke: #ff9500"/>
     <use xlink:href="#m92148a01e2" x="55.558239" y="214.616679" style="fill: #ff9500; stroke: #ff9500"/>
     <use xlink:href="#m92148a01e2" x="75.849148" y="213.938975" style="fill: #ff9500; stroke: #ff9500"/>
     <use xlink:href="#m92148a01e2" x="96.140057" y="213.82559" style="fill: #ff9500; stroke: #ff9500"/>
     <use xlink:href="#m92148a01e2" x="116.430966" y="214.079004" style="fill: #ff9500; stroke: #ff9500"/>
     <use xlink:href="#m92148a01e2" x="136.721875" y="214.531651" style="fill: #ff9500; stroke: #ff9500"/>
     <use xlink:href="#m92148a01e2" x="157.012784" y="214.884654" style="fill: #ff9500; stroke: #ff9500"/>
     <use xlink:href="#m92148a01e2" x="177.303693" y="215.093175" style="fill: #ff9500; stroke: #ff9500"/>
     <use xlink:href="#m92148a01e2" x="197.594602" y="215.202506" style="fill: #ff9500; stroke: #ff9500"/>
     <use xlink:href="#m92148a01e2" x="217.885511" y="215.253624" style="fill: #ff9500; stroke: #ff9500"/>
     <use xlink:href="#m92148a01e2" x="238.17642" y="215.28" style="fill: #ff9500; stroke: #ff9500"/>
    </g>
   </g>
   <g id="line2d_108">
    <path d="M 35.26733 192.499691 
L 55.558239 179.023777 
L 75.849148 162.204343 
L 96.140057 143.403729 
L 116.430966 126.337345 
L 136.721875 204.453483 
L 157.012784 200.207265 
L 177.303693 199.01707 
L 197.594602 187.447327 
L 217.885511 164.661036 
L 238.17642 121.766353 
" clip-path="url(#p8f404d69ee)" style="fill: none; stroke: #ff2c00; stroke-linecap: square"/>
    <defs>
     <path id="m51fb25865b" d="M 0 3 
C 0.795609 3 1.55874 2.683901 2.12132 2.12132 
C 2.683901 1.55874 3 0.795609 3 0 
C 3 -0.795609 2.683901 -1.55874 2.12132 -2.12132 
C 1.55874 -2.683901 0.795609 -3 0 -3 
C -0.795609 -3 -1.55874 -2.683901 -2.12132 -2.12132 
C -2.683901 -1.55874 -3 -0.795609 -3 0 
C -3 0.795609 -2.683901 1.55874 -2.12132 2.12132 
C -1.55874 2.683901 -0.795609 3 0 3 
z
" style="stroke: #ff2c00"/>
    </defs>
    <g clip-path="url(#p8f404d69ee)">
     <use xlink:href="#m51fb25865b" x="35.26733" y="192.499691" style="fill: #ff2c00; stroke: #ff2c00"/>
     <use xlink:href="#m51fb25865b" x="55.558239" y="179.023777" style="fill: #ff2c00; stroke: #ff2c00"/>
     <use xlink:href="#m51fb25865b" x="75.849148" y="162.204343" style="fill: #ff2c00; stroke: #ff2c00"/>
     <use xlink:href="#m51fb25865b" x="96.140057" y="143.403729" style="fill: #ff2c00; stroke: #ff2c00"/>
     <use xlink:href="#m51fb25865b" x="116.430966" y="126.337345" style="fill: #ff2c00; stroke: #ff2c00"/>
     <use xlink:href="#m51fb25865b" x="136.721875" y="204.453483" style="fill: #ff2c00; stroke: #ff2c00"/>
     <use xlink:href="#m51fb25865b" x="157.012784" y="200.207265" style="fill: #ff2c00; stroke: #ff2c00"/>
     <use xlink:href="#m51fb25865b" x="177.303693" y="199.01707" style="fill: #ff2c00; stroke: #ff2c00"/>
     <use xlink:href="#m51fb25865b" x="197.594602" y="187.447327" style="fill: #ff2c00; stroke: #ff2c00"/>
     <use xlink:href="#m51fb25865b" x="217.885511" y="164.661036" style="fill: #ff2c00; stroke: #ff2c00"/>
     <use xlink:href="#m51fb25865b" x="238.17642" y="121.766353" style="fill: #ff2c00; stroke: #ff2c00"/>
    </g>
   </g>
   <g id="patch_3">
    <path d="M 25.121875 225.36 
L 25.121875 3.6 
" style="fill: none; stroke: #000000; stroke-width: 0.5; stroke-linejoin: miter; stroke-linecap: square"/>
   </g>
   <g id="patch_4">
    <path d="M 248.321875 225.36 
L 248.321875 3.6 
" style="fill: none; stroke: #000000; stroke-width: 0.5; stroke-linejoin: miter; stroke-linecap: square"/>
   </g>
   <g id="patch_5">
    <path d="M 25.121875 225.36 
L 248.321875 225.36 
" style="fill: none; stroke: #000000; stroke-width: 0.5; stroke-linejoin: miter; stroke-linecap: square"/>
   </g>
   <g id="patch_6">
    <path d="M 25.121875 3.6 
L 248.321875 3.6 
" style="fill: none; stroke: #000000; stroke-width: 0.5; stroke-linejoin: miter; stroke-linecap: square"/>
   </g>
   <g id="legend_1">
    <g id="line2d_109">
     <path d="M 34.121875 16.1 
L 44.121875 16.1 
L 54.121875 16.1 
" style="fill: none; stroke: #0c5da5; stroke-linecap: square"/>
     <g>
      <use xlink:href="#m17da8557e5" x="44.121875" y="16.1" style="fill: #0c5da5; stroke: #0c5da5"/>
     </g>
    </g>
    <g id="text_19">
     <!-- AMD -->
     <g transform="translate(62.121875 19.6) scale(0.1 -0.1)">
      <defs>
       <path id="LinLibertine-4d" d="M 4241 744 
L 4078 3419 
L 4063 3419 
L 2625 31 
Q 2588 -41 2534 -38 
Q 2463 -38 2438 31 
L 1113 3353 
L 1100 3353 
L 856 788 
Q 831 488 907 356 
Q 984 225 1281 197 
Q 1306 166 1306 89 
Q 1306 13 1281 -13 
Q 897 0 678 0 
Q 513 0 128 -13 
Q 103 13 103 89 
Q 103 166 128 197 
Q 391 219 484 344 
Q 578 469 606 775 
L 863 3413 
Q 894 3766 831 3837 
Q 769 3909 428 3928 
Q 397 3953 397 4031 
Q 397 4109 428 4141 
L 1356 4128 
L 2669 878 
Q 2706 794 2719 794 
Q 2738 794 2778 884 
L 4134 4128 
L 4972 4141 
Q 5003 4109 5004 4032 
Q 5006 3956 4972 3928 
Q 4656 3909 4584 3825 
Q 4513 3741 4534 3469 
L 4725 775 
Q 4734 622 4742 547 
Q 4750 472 4773 395 
Q 4797 319 4820 292 
Q 4844 266 4905 241 
Q 4966 216 5030 209 
Q 5094 203 5216 197 
Q 5247 166 5247 89 
Q 5247 13 5216 -13 
Q 4794 0 4519 0 
Q 4434 0 3834 -13 
Q 3803 13 3803 89 
Q 3803 166 3834 197 
Q 3959 203 4012 208 
Q 4066 213 4128 234 
Q 4191 256 4208 281 
Q 4225 306 4240 376 
Q 4256 447 4253 522 
Q 4250 597 4241 744 
z
" transform="scale(0.015625)"/>
       <path id="LinLibertine-44" d="M 1222 531 
Q 1222 359 1353 282 
Q 1484 206 1919 206 
Q 2284 206 2565 279 
Q 2847 353 3090 525 
Q 3334 697 3465 1023 
Q 3597 1350 3597 1819 
Q 3597 2209 3501 2567 
Q 3406 2925 3200 3239 
Q 2994 3553 2623 3737 
Q 2253 3922 1759 3922 
Q 1222 3922 1222 3609 
L 1222 531 
z
M 947 4128 
Q 1050 4128 1414 4134 
Q 1778 4141 2003 4141 
Q 2925 4141 3569 3505 
Q 4213 2869 4213 1972 
Q 4213 1409 4017 1001 
Q 3822 594 3498 383 
Q 3175 172 2833 79 
Q 2491 -13 2119 -13 
Q 1734 -13 1376 -6 
Q 1019 0 953 0 
Q 747 0 122 -13 
Q 91 13 91 89 
Q 91 166 122 197 
Q 481 209 579 303 
Q 678 397 678 781 
L 678 3347 
Q 678 3731 579 3823 
Q 481 3916 122 3928 
Q 91 3953 91 4031 
Q 91 4109 122 4141 
Q 763 4128 947 4128 
z
" transform="scale(0.015625)"/>
      </defs>
      <use xlink:href="#LinLibertine-41"/>
      <use xlink:href="#LinLibertine-4d" x="69.482422"/>
      <use xlink:href="#LinLibertine-44" x="153.369141"/>
     </g>
    </g>
    <g id="line2d_110">
     <path d="M 34.121875 30.439062 
L 44.121875 30.439062 
L 54.121875 30.439062 
" style="fill: none; stroke: #00b945; stroke-linecap: square"/>
     <g>
      <use xlink:href="#m52607afa40" x="44.121875" y="30.439062" style="fill: #00b945; stroke: #00b945"/>
     </g>
    </g>
    <g id="text_20">
     <!-- Apple -->
     <g transform="translate(62.121875 33.939062) scale(0.1 -0.1)">
      <use xlink:href="#LinLibertine-41"/>
      <use xlink:href="#LinLibertine-70" x="69.482422"/>
      <use xlink:href="#LinLibertine-70" x="121.337891"/>
      <use xlink:href="#LinLibertine-6c" x="173.193359"/>
      <use xlink:href="#LinLibertine-65" x="199.560547"/>
     </g>
    </g>
    <g id="line2d_111">
     <path d="M 34.121875 44.778125 
L 44.121875 44.778125 
L 54.121875 44.778125 
" style="fill: none; stroke: #ff9500; stroke-linecap: square"/>
     <g>
      <use xlink:href="#m92148a01e2" x="44.121875" y="44.778125" style="fill: #ff9500; stroke: #ff9500"/>
     </g>
    </g>
    <g id="text_21">
     <!-- NVIDIA -->
     <g transform="translate(62.121875 48.278125) scale(0.1 -0.1)">
      <defs>
       <path id="LinLibertine-4e" d="M 3559 3278 
Q 3559 3503 3539 3620 
Q 3519 3738 3442 3805 
Q 3366 3872 3283 3890 
Q 3200 3909 3003 3928 
Q 2972 3953 2970 4031 
Q 2969 4109 3003 4141 
Q 3644 4128 3713 4128 
Q 3803 4128 4428 4141 
Q 4453 4109 4453 4032 
Q 4453 3956 4428 3928 
Q 4069 3891 3970 3789 
Q 3872 3688 3872 3278 
L 3872 134 
Q 3872 -63 3725 -63 
Q 3584 -63 3469 91 
L 1234 2913 
Q 1069 3125 1017 3123 
Q 966 3122 966 2809 
L 966 850 
Q 966 625 986 508 
Q 1006 391 1082 323 
Q 1159 256 1242 237 
Q 1325 219 1522 197 
Q 1547 166 1548 89 
Q 1550 13 1522 -13 
Q 881 0 813 0 
Q 722 0 97 -13 
Q 66 13 64 89 
Q 63 166 97 197 
Q 456 234 554 337 
Q 653 441 653 850 
L 653 3519 
Q 622 3659 481 3787 
Q 341 3916 147 3928 
Q 116 3953 116 4031 
Q 116 4109 147 4141 
L 1013 4128 
L 3206 1300 
Q 3250 1244 3301 1172 
Q 3353 1100 3379 1069 
Q 3406 1038 3434 1005 
Q 3463 972 3481 959 
Q 3500 947 3513 947 
Q 3556 947 3559 1141 
L 3559 3278 
z
" transform="scale(0.015625)"/>
       <path id="LinLibertine-56" d="M 2869 3928 
Q 2844 3953 2842 4031 
Q 2841 4109 2869 4141 
Q 3472 4128 3566 4128 
Q 3616 4128 4128 4141 
Q 4159 4109 4159 4032 
Q 4159 3956 4128 3928 
Q 4006 3913 3911 3870 
Q 3816 3828 3761 3789 
Q 3706 3750 3650 3654 
Q 3594 3559 3573 3512 
Q 3553 3466 3500 3334 
L 2175 72 
Q 2119 -75 2022 -78 
Q 1931 -78 1875 72 
L 613 3347 
Q 466 3722 383 3814 
Q 300 3906 38 3928 
Q 6 3959 6 4034 
Q 6 4109 31 4141 
Q 634 4128 697 4128 
Q 869 4128 1472 4141 
Q 1497 4109 1497 4032 
Q 1497 3956 1472 3928 
Q 1150 3894 1090 3798 
Q 1031 3703 1147 3419 
L 2166 813 
L 2197 813 
L 3206 3378 
Q 3328 3641 3264 3772 
Q 3200 3903 2869 3928 
z
" transform="scale(0.015625)"/>
       <path id="LinLibertine-49" d="M 1222 781 
Q 1222 397 1322 305 
Q 1422 213 1778 197 
Q 1803 166 1804 89 
Q 1806 13 1778 -13 
Q 1138 0 953 0 
Q 747 0 122 -13 
Q 91 13 91 89 
Q 91 166 122 197 
Q 481 209 579 303 
Q 678 397 678 781 
L 678 3347 
Q 678 3731 579 3823 
Q 481 3916 122 3928 
Q 91 3953 91 4031 
Q 91 4109 122 4141 
Q 763 4128 947 4128 
Q 1153 4128 1778 4141 
Q 1803 4109 1804 4032 
Q 1806 3956 1778 3928 
Q 1419 3916 1320 3823 
Q 1222 3731 1222 3347 
L 1222 781 
z
" transform="scale(0.015625)"/>
      </defs>
      <use xlink:href="#LinLibertine-4e"/>
      <use xlink:href="#LinLibertine-56" x="69.873047"/>
      <use xlink:href="#LinLibertine-49" x="135.058594"/>
      <use xlink:href="#LinLibertine-44" x="164.746094"/>
      <use xlink:href="#LinLibertine-49" x="234.814453"/>
      <use xlink:href="#LinLibertine-41" x="264.501953"/>
     </g>
    </g>
    <g id="line2d_112">
     <path d="M 34.121875 59.117187 
L 44.121875 59.117187 
L 54.121875 59.117187 
" style="fill: none; stroke: #ff2c00; stroke-linecap: square"/>
     <g>
      <use xlink:href="#m51fb25865b" x="44.121875" y="59.117187" style="fill: #ff2c00; stroke: #ff2c00"/>
     </g>
    </g>
    <g id="text_22">
     <!-- Intel -->
     <g transform="translate(62.121875 62.617187) scale(0.1 -0.1)">
      <use xlink:href="#LinLibertine-49"/>
      <use xlink:href="#LinLibertine-6e" x="29.6875"/>
      <use xlink:href="#LinLibertine-74" x="83.886719"/>
      <use xlink:href="#LinLibertine-65" x="115.478516"/>
      <use xlink:href="#LinLibertine-6c" x="160.15625"/>
     </g>
    </g>
   </g>
  </g>
 </g>
 <defs>
  <clipPath id="p8f404d69ee">
   <rect x="25.121875" y="3.6" width="223.2" height="221.76"/>
  </clipPath>
 </defs>
</svg>
